<mxfile host="Electron" agent="Mozilla/5.0 (Windows NT 10.0; Win64; x64) AppleWebKit/537.36 (KHTML, like Gecko) draw.io/25.0.2 Chrome/128.0.6613.186 Electron/32.2.5 Safari/537.36" version="25.0.2">
  <diagram name="PaginÄƒ-1" id="TcodfHyN6SmUL0LaJ6Ek">
    <mxGraphModel dx="1500" dy="1024" grid="0" gridSize="10" guides="1" tooltips="1" connect="1" arrows="1" fold="1" page="1" pageScale="1" pageWidth="1169" pageHeight="827" background="#ffffff" math="0" shadow="0">
      <root>
        <mxCell id="0" />
        <mxCell id="1" parent="0" />
        <mxCell id="0WRwXrurPnLPy8FA2Ccs-5" value="" style="ellipse;whiteSpace=wrap;html=1;fillColor=#f5f5f5;strokeColor=#666666;fontColor=#333333;" parent="1" vertex="1">
          <mxGeometry x="542" y="100" width="120" height="83" as="geometry" />
        </mxCell>
        <mxCell id="0WRwXrurPnLPy8FA2Ccs-40" value="" style="edgeStyle=orthogonalEdgeStyle;rounded=0;orthogonalLoop=1;jettySize=auto;html=1;exitX=1;exitY=0.5;exitDx=0;exitDy=0;" parent="1" source="o3qul6ePy4JUyelCJQQg-4" target="0WRwXrurPnLPy8FA2Ccs-17" edge="1">
          <mxGeometry relative="1" as="geometry">
            <mxPoint x="429" y="515" as="sourcePoint" />
          </mxGeometry>
        </mxCell>
        <mxCell id="0WRwXrurPnLPy8FA2Ccs-7" value="" style="ellipse;whiteSpace=wrap;html=1;fillColor=#c93684;strokeColor=#A50040;fontColor=#ffffff;" parent="1" vertex="1">
          <mxGeometry x="309" y="475" width="120" height="80" as="geometry" />
        </mxCell>
        <mxCell id="0WRwXrurPnLPy8FA2Ccs-9" value="WHITE_WAIT" style="text;html=1;align=center;verticalAlign=middle;whiteSpace=wrap;rounded=0;fillColor=none;fontColor=#000000;fontSize=14;fontStyle=1" parent="1" vertex="1">
          <mxGeometry x="572" y="129" width="60" height="30" as="geometry" />
        </mxCell>
        <mxCell id="0WRwXrurPnLPy8FA2Ccs-17" value="" style="ellipse;whiteSpace=wrap;html=1;fillColor=#dae8fc;strokeColor=#6c8ebf;gradientColor=#7ea6e0;" parent="1" vertex="1">
          <mxGeometry x="542" y="475" width="120" height="80" as="geometry" />
        </mxCell>
        <mxCell id="0WRwXrurPnLPy8FA2Ccs-18" value="BLUE_WAIT" style="text;html=1;align=center;verticalAlign=middle;whiteSpace=wrap;rounded=0;fillColor=none;fontColor=#000000;fontSize=14;fontStyle=1" parent="1" vertex="1">
          <mxGeometry x="572" y="500" width="60" height="30" as="geometry" />
        </mxCell>
        <mxCell id="0WRwXrurPnLPy8FA2Ccs-19" value="MAGENTA" style="text;html=1;align=center;verticalAlign=middle;whiteSpace=wrap;rounded=0;fillColor=none;fontColor=#000000;fontSize=14;fontStyle=1" parent="1" vertex="1">
          <mxGeometry x="339" y="500" width="60" height="30" as="geometry" />
        </mxCell>
        <mxCell id="0WRwXrurPnLPy8FA2Ccs-20" value="" style="ellipse;whiteSpace=wrap;html=1;fillColor=#c93684;strokeColor=#A50040;fontColor=#ffffff;" parent="1" vertex="1">
          <mxGeometry x="309" y="288" width="120" height="80" as="geometry" />
        </mxCell>
        <mxCell id="0WRwXrurPnLPy8FA2Ccs-21" value="MAGENTA_WAIT" style="text;html=1;align=center;verticalAlign=middle;whiteSpace=wrap;rounded=0;fillColor=none;fontColor=#000000;fontSize=14;fontStyle=1" parent="1" vertex="1">
          <mxGeometry x="339" y="313" width="60" height="30" as="geometry" />
        </mxCell>
        <mxCell id="0WRwXrurPnLPy8FA2Ccs-26" value="" style="endArrow=classic;html=1;rounded=0;strokeColor=#000000;strokeWidth=2;exitX=1;exitY=0.5;exitDx=0;exitDy=0;" parent="1" source="0WRwXrurPnLPy8FA2Ccs-1" edge="1">
          <mxGeometry width="50" height="50" relative="1" as="geometry">
            <mxPoint x="441" y="73" as="sourcePoint" />
            <mxPoint x="541" y="141" as="targetPoint" />
            <Array as="points">
              <mxPoint x="484" y="127" />
            </Array>
          </mxGeometry>
        </mxCell>
        <mxCell id="0WRwXrurPnLPy8FA2Ccs-27" value="" style="endArrow=classic;html=1;rounded=0;strokeColor=#000000;strokeWidth=2;entryX=0;entryY=0.5;entryDx=0;entryDy=0;" parent="1" target="0WRwXrurPnLPy8FA2Ccs-8" edge="1">
          <mxGeometry width="50" height="50" relative="1" as="geometry">
            <mxPoint x="659" y="140.87" as="sourcePoint" />
            <mxPoint x="706" y="177" as="targetPoint" />
            <Array as="points">
              <mxPoint x="721" y="123" />
            </Array>
          </mxGeometry>
        </mxCell>
        <mxCell id="0WRwXrurPnLPy8FA2Ccs-29" value="TIME-OUT" style="text;html=1;align=center;verticalAlign=middle;whiteSpace=wrap;rounded=0;fillColor=none;fontColor=#000000;fontSize=14;fontStyle=1" parent="1" vertex="1">
          <mxGeometry x="674" y="94" width="87" height="30" as="geometry" />
        </mxCell>
        <mxCell id="0WRwXrurPnLPy8FA2Ccs-31" value="" style="group;rotation=90;" parent="1" vertex="1" connectable="0">
          <mxGeometry x="182" y="103" width="247" height="164" as="geometry" />
        </mxCell>
        <mxCell id="0WRwXrurPnLPy8FA2Ccs-1" value="" style="ellipse;whiteSpace=wrap;html=1;fillColor=#f5f5f5;strokeColor=#666666;fontColor=#333333;" parent="0WRwXrurPnLPy8FA2Ccs-31" vertex="1">
          <mxGeometry x="127" width="120" height="80" as="geometry" />
        </mxCell>
        <mxCell id="0WRwXrurPnLPy8FA2Ccs-2" value="WHITE" style="text;html=1;align=center;verticalAlign=middle;whiteSpace=wrap;rounded=0;fillColor=none;fontColor=#000000;fontSize=14;fontStyle=1" parent="0WRwXrurPnLPy8FA2Ccs-31" vertex="1">
          <mxGeometry x="157" y="25" width="60" height="30.000000000000004" as="geometry" />
        </mxCell>
        <mxCell id="0WRwXrurPnLPy8FA2Ccs-25" value="" style="endArrow=classic;html=1;rounded=0;entryX=0.008;entryY=0.403;entryDx=0;entryDy=0;entryPerimeter=0;strokeColor=#000000;strokeWidth=2;" parent="0WRwXrurPnLPy8FA2Ccs-31" target="0WRwXrurPnLPy8FA2Ccs-1" edge="1">
          <mxGeometry width="50" height="50" relative="1" as="geometry">
            <mxPoint y="32.00000000000001" as="sourcePoint" />
            <mxPoint x="461" y="247.00000000000003" as="targetPoint" />
          </mxGeometry>
        </mxCell>
        <mxCell id="0WRwXrurPnLPy8FA2Ccs-32" style="edgeStyle=orthogonalEdgeStyle;rounded=0;orthogonalLoop=1;jettySize=auto;html=1;exitX=0;exitY=0;exitDx=0;exitDy=0;entryX=0;entryY=0.25;entryDx=0;entryDy=0;" parent="0WRwXrurPnLPy8FA2Ccs-31" source="0WRwXrurPnLPy8FA2Ccs-2" target="0WRwXrurPnLPy8FA2Ccs-2" edge="1">
          <mxGeometry relative="1" as="geometry" />
        </mxCell>
        <mxCell id="o3qul6ePy4JUyelCJQQg-6" value="" style="endArrow=classic;html=1;rounded=0;entryX=0.5;entryY=0;entryDx=0;entryDy=0;strokeColor=#d20f0f;strokeWidth=2;" edge="1" parent="0WRwXrurPnLPy8FA2Ccs-31" target="0WRwXrurPnLPy8FA2Ccs-1">
          <mxGeometry width="50" height="50" relative="1" as="geometry">
            <mxPoint x="187" y="-86" as="sourcePoint" />
            <mxPoint x="148.5" y="-66" as="targetPoint" />
          </mxGeometry>
        </mxCell>
        <mxCell id="0WRwXrurPnLPy8FA2Ccs-33" value="" style="group" parent="1" vertex="1" connectable="0">
          <mxGeometry x="787" y="100" width="120" height="268" as="geometry" />
        </mxCell>
        <mxCell id="0WRwXrurPnLPy8FA2Ccs-8" value="" style="ellipse;whiteSpace=wrap;html=1;fillColor=#cdeb8b;strokeColor=#36393d;" parent="0WRwXrurPnLPy8FA2Ccs-33" vertex="1">
          <mxGeometry width="120" height="80" as="geometry" />
        </mxCell>
        <mxCell id="0WRwXrurPnLPy8FA2Ccs-10" value="GREEN" style="text;html=1;align=center;verticalAlign=middle;whiteSpace=wrap;rounded=0;fillColor=none;fontColor=#000000;fontSize=14;fontStyle=1" parent="0WRwXrurPnLPy8FA2Ccs-33" vertex="1">
          <mxGeometry x="30" y="25" width="60" height="30" as="geometry" />
        </mxCell>
        <mxCell id="0WRwXrurPnLPy8FA2Ccs-11" value="" style="ellipse;whiteSpace=wrap;html=1;fillColor=#cdeb8b;strokeColor=#36393d;" parent="0WRwXrurPnLPy8FA2Ccs-33" vertex="1">
          <mxGeometry y="188" width="120" height="80" as="geometry" />
        </mxCell>
        <mxCell id="0WRwXrurPnLPy8FA2Ccs-12" value="GREEN_WAIT" style="text;html=1;align=center;verticalAlign=middle;whiteSpace=wrap;rounded=0;fillColor=none;fontColor=#000000;fontSize=14;fontStyle=1" parent="0WRwXrurPnLPy8FA2Ccs-33" vertex="1">
          <mxGeometry x="30" y="213" width="60" height="30" as="geometry" />
        </mxCell>
        <mxCell id="0WRwXrurPnLPy8FA2Ccs-30" value="" style="endArrow=classic;html=1;rounded=0;strokeColor=#000000;strokeWidth=2;exitX=0.5;exitY=1;exitDx=0;exitDy=0;" parent="0WRwXrurPnLPy8FA2Ccs-33" source="0WRwXrurPnLPy8FA2Ccs-8" edge="1">
          <mxGeometry width="50" height="50" relative="1" as="geometry">
            <mxPoint x="-206" y="186.75" as="sourcePoint" />
            <mxPoint x="60" y="187" as="targetPoint" />
            <Array as="points">
              <mxPoint x="76" y="132" />
            </Array>
          </mxGeometry>
        </mxCell>
        <mxCell id="o3qul6ePy4JUyelCJQQg-20" value="" style="endArrow=classic;html=1;rounded=0;entryX=0.246;entryY=0.911;entryDx=0;entryDy=0;strokeColor=#d20f0f;strokeWidth=2;exitX=0.5;exitY=0;exitDx=0;exitDy=0;entryPerimeter=0;" edge="1" parent="0WRwXrurPnLPy8FA2Ccs-33" source="0WRwXrurPnLPy8FA2Ccs-11" target="0WRwXrurPnLPy8FA2Ccs-8">
          <mxGeometry width="50" height="50" relative="1" as="geometry">
            <mxPoint x="35" y="396" as="sourcePoint" />
            <mxPoint x="28" y="266" as="targetPoint" />
            <Array as="points">
              <mxPoint x="43" y="148" />
            </Array>
          </mxGeometry>
        </mxCell>
        <mxCell id="0WRwXrurPnLPy8FA2Ccs-34" value="" style="group" parent="1" vertex="1" connectable="0">
          <mxGeometry x="784" y="475" width="120" height="80" as="geometry" />
        </mxCell>
        <mxCell id="0WRwXrurPnLPy8FA2Ccs-6" value="" style="ellipse;whiteSpace=wrap;html=1;fillColor=#dae8fc;strokeColor=#6c8ebf;gradientColor=#7ea6e0;" parent="0WRwXrurPnLPy8FA2Ccs-34" vertex="1">
          <mxGeometry width="120" height="80" as="geometry" />
        </mxCell>
        <mxCell id="0WRwXrurPnLPy8FA2Ccs-16" value="BLUE" style="text;html=1;align=center;verticalAlign=middle;whiteSpace=wrap;rounded=0;fillColor=none;fontColor=#000000;fontSize=14;fontStyle=1" parent="0WRwXrurPnLPy8FA2Ccs-34" vertex="1">
          <mxGeometry x="30" y="25" width="60" height="30" as="geometry" />
        </mxCell>
        <mxCell id="0WRwXrurPnLPy8FA2Ccs-36" value="" style="endArrow=classic;html=1;rounded=0;strokeColor=#000000;strokeWidth=2;entryX=0.5;entryY=0;entryDx=0;entryDy=0;" parent="1" target="0WRwXrurPnLPy8FA2Ccs-6" edge="1">
          <mxGeometry width="50" height="50" relative="1" as="geometry">
            <mxPoint x="845" y="370" as="sourcePoint" />
            <mxPoint x="907" y="443" as="targetPoint" />
            <Array as="points">
              <mxPoint x="857" y="423" />
            </Array>
          </mxGeometry>
        </mxCell>
        <mxCell id="0WRwXrurPnLPy8FA2Ccs-37" value="TIME-OUT" style="text;html=1;align=center;verticalAlign=middle;whiteSpace=wrap;rounded=0;fillColor=none;fontColor=#000000;fontSize=14;fontStyle=1" parent="1" vertex="1">
          <mxGeometry x="851" y="399" width="87" height="30" as="geometry" />
        </mxCell>
        <mxCell id="0WRwXrurPnLPy8FA2Ccs-38" value="" style="endArrow=classic;html=1;rounded=0;strokeColor=#000000;strokeWidth=2;entryX=1;entryY=0.5;entryDx=0;entryDy=0;exitX=0;exitY=0.5;exitDx=0;exitDy=0;" parent="1" source="0WRwXrurPnLPy8FA2Ccs-6" target="0WRwXrurPnLPy8FA2Ccs-17" edge="1">
          <mxGeometry width="50" height="50" relative="1" as="geometry">
            <mxPoint x="855" y="380" as="sourcePoint" />
            <mxPoint x="854" y="485" as="targetPoint" />
            <Array as="points">
              <mxPoint x="727" y="548" />
            </Array>
          </mxGeometry>
        </mxCell>
        <mxCell id="0WRwXrurPnLPy8FA2Ccs-39" value="" style="endArrow=classic;html=1;rounded=0;strokeColor=#000000;strokeWidth=2;exitX=0;exitY=0.5;exitDx=0;exitDy=0;" parent="1" source="0WRwXrurPnLPy8FA2Ccs-17" edge="1">
          <mxGeometry width="50" height="50" relative="1" as="geometry">
            <mxPoint x="547" y="514.38" as="sourcePoint" />
            <mxPoint x="431" y="514" as="targetPoint" />
            <Array as="points">
              <mxPoint x="481" y="540" />
            </Array>
          </mxGeometry>
        </mxCell>
        <mxCell id="0WRwXrurPnLPy8FA2Ccs-41" value="TIME-OUT" style="text;html=1;align=center;verticalAlign=middle;whiteSpace=wrap;rounded=0;fillColor=none;fontColor=#000000;fontSize=14;fontStyle=1" parent="1" vertex="1">
          <mxGeometry x="442" y="547" width="87" height="30" as="geometry" />
        </mxCell>
        <mxCell id="0WRwXrurPnLPy8FA2Ccs-42" value="START" style="text;html=1;align=center;verticalAlign=middle;whiteSpace=wrap;rounded=0;fillColor=none;fontColor=#000000;fontSize=14;fontStyle=1" parent="1" vertex="1">
          <mxGeometry x="197" y="103" width="87" height="30" as="geometry" />
        </mxCell>
        <mxCell id="0WRwXrurPnLPy8FA2Ccs-43" value="" style="endArrow=classic;html=1;rounded=0;strokeColor=#000000;strokeWidth=2;entryX=0.5;entryY=1;entryDx=0;entryDy=0;exitX=0.5;exitY=0;exitDx=0;exitDy=0;" parent="1" source="0WRwXrurPnLPy8FA2Ccs-20" target="0WRwXrurPnLPy8FA2Ccs-1" edge="1">
          <mxGeometry width="50" height="50" relative="1" as="geometry">
            <mxPoint x="794" y="525" as="sourcePoint" />
            <mxPoint x="672" y="525" as="targetPoint" />
          </mxGeometry>
        </mxCell>
        <mxCell id="0WRwXrurPnLPy8FA2Ccs-44" value="" style="endArrow=classic;html=1;rounded=0;strokeColor=#000000;strokeWidth=2;entryX=0.5;entryY=1;entryDx=0;entryDy=0;exitX=0.5;exitY=0;exitDx=0;exitDy=0;" parent="1" source="0WRwXrurPnLPy8FA2Ccs-7" target="0WRwXrurPnLPy8FA2Ccs-20" edge="1">
          <mxGeometry width="50" height="50" relative="1" as="geometry">
            <mxPoint x="804" y="535" as="sourcePoint" />
            <mxPoint x="682" y="535" as="targetPoint" />
            <Array as="points">
              <mxPoint x="337" y="425" />
            </Array>
          </mxGeometry>
        </mxCell>
        <mxCell id="o3qul6ePy4JUyelCJQQg-2" value="293ms" style="text;html=1;align=center;verticalAlign=middle;whiteSpace=wrap;rounded=0;fillColor=none;fontColor=#000000;fontSize=14;fontStyle=1" vertex="1" parent="1">
          <mxGeometry x="677" y="129" width="87" height="30" as="geometry" />
        </mxCell>
        <mxCell id="o3qul6ePy4JUyelCJQQg-3" value="293ms" style="text;html=1;align=center;verticalAlign=middle;whiteSpace=wrap;rounded=0;fillColor=none;fontColor=#000000;fontSize=14;fontStyle=1" vertex="1" parent="1">
          <mxGeometry x="847" y="429" width="87" height="30" as="geometry" />
        </mxCell>
        <mxCell id="o3qul6ePy4JUyelCJQQg-5" value="" style="edgeStyle=orthogonalEdgeStyle;rounded=0;orthogonalLoop=1;jettySize=auto;html=1;exitX=1;exitY=0.5;exitDx=0;exitDy=0;" edge="1" parent="1" source="0WRwXrurPnLPy8FA2Ccs-7" target="o3qul6ePy4JUyelCJQQg-4">
          <mxGeometry relative="1" as="geometry">
            <mxPoint x="429" y="515" as="sourcePoint" />
            <mxPoint x="542" y="515" as="targetPoint" />
          </mxGeometry>
        </mxCell>
        <mxCell id="o3qul6ePy4JUyelCJQQg-4" value="293ms" style="text;html=1;align=center;verticalAlign=middle;whiteSpace=wrap;rounded=0;fillColor=none;fontColor=#000000;fontSize=14;fontStyle=1" vertex="1" parent="1">
          <mxGeometry x="442" y="496" width="87" height="30" as="geometry" />
        </mxCell>
        <mxCell id="o3qul6ePy4JUyelCJQQg-8" value="&lt;font style=&quot;font-size: 14px;&quot; color=&quot;#000000&quot;&gt;&lt;b style=&quot;&quot;&gt;Invert the LED sequence&lt;/b&gt;&lt;/font&gt;" style="text;html=1;align=center;verticalAlign=middle;whiteSpace=wrap;rounded=0;" vertex="1" parent="1">
          <mxGeometry x="366" y="35" width="138" height="30" as="geometry" />
        </mxCell>
        <mxCell id="o3qul6ePy4JUyelCJQQg-9" value="" style="ellipse;whiteSpace=wrap;html=1;fillColor=#f5f5f5;strokeColor=#666666;fontColor=#333333;" vertex="1" parent="1">
          <mxGeometry x="133" y="219" width="120" height="83" as="geometry" />
        </mxCell>
        <mxCell id="o3qul6ePy4JUyelCJQQg-10" value="WHITE_WAIT" style="text;html=1;align=center;verticalAlign=middle;whiteSpace=wrap;rounded=0;fillColor=none;fontColor=#000000;fontSize=14;fontStyle=1" vertex="1" parent="1">
          <mxGeometry x="163" y="243" width="60" height="30" as="geometry" />
        </mxCell>
        <mxCell id="o3qul6ePy4JUyelCJQQg-11" value="" style="endArrow=classic;html=1;rounded=0;entryX=0.5;entryY=0;entryDx=0;entryDy=0;strokeColor=#d20f0f;strokeWidth=2;exitX=0.03;exitY=0.73;exitDx=0;exitDy=0;exitPerimeter=0;" edge="1" parent="1" source="0WRwXrurPnLPy8FA2Ccs-1" target="o3qul6ePy4JUyelCJQQg-9">
          <mxGeometry width="50" height="50" relative="1" as="geometry">
            <mxPoint x="379" y="27" as="sourcePoint" />
            <mxPoint x="379" y="113" as="targetPoint" />
          </mxGeometry>
        </mxCell>
        <mxCell id="o3qul6ePy4JUyelCJQQg-12" value="" style="endArrow=classic;html=1;rounded=0;entryX=0;entryY=0.5;entryDx=0;entryDy=0;strokeColor=#d20f0f;strokeWidth=2;exitX=0.5;exitY=1;exitDx=0;exitDy=0;" edge="1" parent="1" source="o3qul6ePy4JUyelCJQQg-9" target="0WRwXrurPnLPy8FA2Ccs-20">
          <mxGeometry width="50" height="50" relative="1" as="geometry">
            <mxPoint x="323" y="171" as="sourcePoint" />
            <mxPoint x="184" y="215" as="targetPoint" />
          </mxGeometry>
        </mxCell>
        <mxCell id="0WRwXrurPnLPy8FA2Ccs-45" value="TIME-OUT" style="text;html=1;align=center;verticalAlign=middle;whiteSpace=wrap;rounded=0;fillColor=none;fontColor=#000000;fontSize=14;fontStyle=1" parent="1" vertex="1">
          <mxGeometry x="369" y="215" width="87" height="30" as="geometry" />
        </mxCell>
        <mxCell id="o3qul6ePy4JUyelCJQQg-13" value="293ms" style="text;html=1;align=center;verticalAlign=middle;whiteSpace=wrap;rounded=0;fillColor=none;fontColor=#000000;fontSize=14;fontStyle=1" vertex="1" parent="1">
          <mxGeometry x="366" y="237" width="87" height="30" as="geometry" />
        </mxCell>
        <mxCell id="o3qul6ePy4JUyelCJQQg-14" value="TIME-OUT" style="text;html=1;align=center;verticalAlign=middle;whiteSpace=wrap;rounded=0;fillColor=none;fontColor=#000000;fontSize=14;fontStyle=1" vertex="1" parent="1">
          <mxGeometry x="201" y="321" width="87" height="30" as="geometry" />
        </mxCell>
        <mxCell id="o3qul6ePy4JUyelCJQQg-15" value="293ms" style="text;html=1;align=center;verticalAlign=middle;whiteSpace=wrap;rounded=0;fillColor=none;fontColor=#000000;fontSize=14;fontStyle=1" vertex="1" parent="1">
          <mxGeometry x="204" y="343" width="87" height="30" as="geometry" />
        </mxCell>
        <mxCell id="o3qul6ePy4JUyelCJQQg-16" value="" style="endArrow=classic;html=1;rounded=0;entryX=0;entryY=0;entryDx=0;entryDy=0;strokeColor=#d20f0f;strokeWidth=2;exitX=0;exitY=1;exitDx=0;exitDy=0;" edge="1" parent="1" source="0WRwXrurPnLPy8FA2Ccs-20" target="0WRwXrurPnLPy8FA2Ccs-7">
          <mxGeometry width="50" height="50" relative="1" as="geometry">
            <mxPoint x="323" y="171" as="sourcePoint" />
            <mxPoint x="203" y="229" as="targetPoint" />
          </mxGeometry>
        </mxCell>
        <mxCell id="o3qul6ePy4JUyelCJQQg-17" value="" style="endArrow=classic;html=1;rounded=0;entryX=0.079;entryY=0.237;entryDx=0;entryDy=0;strokeColor=#d20f0f;strokeWidth=2;exitX=0.935;exitY=0.28;exitDx=0;exitDy=0;entryPerimeter=0;exitPerimeter=0;" edge="1" parent="1" source="0WRwXrurPnLPy8FA2Ccs-7" target="0WRwXrurPnLPy8FA2Ccs-17">
          <mxGeometry width="50" height="50" relative="1" as="geometry">
            <mxPoint x="337" y="366" as="sourcePoint" />
            <mxPoint x="337" y="497" as="targetPoint" />
            <Array as="points">
              <mxPoint x="489" y="484" />
            </Array>
          </mxGeometry>
        </mxCell>
        <mxCell id="o3qul6ePy4JUyelCJQQg-18" value="" style="endArrow=classic;html=1;rounded=0;entryX=0;entryY=0;entryDx=0;entryDy=0;strokeColor=#d20f0f;strokeWidth=2;exitX=1;exitY=0;exitDx=0;exitDy=0;" edge="1" parent="1" source="0WRwXrurPnLPy8FA2Ccs-17" target="0WRwXrurPnLPy8FA2Ccs-6">
          <mxGeometry width="50" height="50" relative="1" as="geometry">
            <mxPoint x="431" y="507" as="sourcePoint" />
            <mxPoint x="561" y="504" as="targetPoint" />
            <Array as="points">
              <mxPoint x="713" y="469" />
            </Array>
          </mxGeometry>
        </mxCell>
        <mxCell id="o3qul6ePy4JUyelCJQQg-19" value="" style="endArrow=classic;html=1;rounded=0;entryX=0;entryY=1;entryDx=0;entryDy=0;strokeColor=#d20f0f;strokeWidth=2;exitX=0.233;exitY=0.138;exitDx=0;exitDy=0;exitPerimeter=0;" edge="1" parent="1" source="0WRwXrurPnLPy8FA2Ccs-6" target="0WRwXrurPnLPy8FA2Ccs-11">
          <mxGeometry width="50" height="50" relative="1" as="geometry">
            <mxPoint x="654" y="497" as="sourcePoint" />
            <mxPoint x="812" y="497" as="targetPoint" />
            <Array as="points">
              <mxPoint x="789" y="419" />
            </Array>
          </mxGeometry>
        </mxCell>
        <mxCell id="o3qul6ePy4JUyelCJQQg-21" value="" style="endArrow=classic;html=1;rounded=0;entryX=1;entryY=0;entryDx=0;entryDy=0;strokeColor=#d20f0f;strokeWidth=2;exitX=0;exitY=0;exitDx=0;exitDy=0;" edge="1" parent="1" source="0WRwXrurPnLPy8FA2Ccs-8" target="0WRwXrurPnLPy8FA2Ccs-1">
          <mxGeometry width="50" height="50" relative="1" as="geometry">
            <mxPoint x="857" y="298" as="sourcePoint" />
            <mxPoint x="827" y="183" as="targetPoint" />
            <Array as="points">
              <mxPoint x="621" y="62" />
            </Array>
          </mxGeometry>
        </mxCell>
        <mxCell id="o3qul6ePy4JUyelCJQQg-22" value="&lt;font style=&quot;font-size: 16px;&quot; color=&quot;#000000&quot;&gt;&lt;b style=&quot;&quot;&gt;Controler LED RGB&lt;/b&gt;&lt;/font&gt;" style="text;html=1;align=center;verticalAlign=middle;whiteSpace=wrap;rounded=0;" vertex="1" parent="1">
          <mxGeometry x="501" y="310" width="213" height="30" as="geometry" />
        </mxCell>
      </root>
    </mxGraphModel>
  </diagram>
</mxfile>
